PathFileType	4	(X/Y/Z)	pose_F01_0-78.trc
DataRate	CameraRate	NumFrames	NumMarkers	Units	OrigDataRate	OrigDataStartFrame	OrigNumFrames
30	30	8	21	m	30	9	78
Frame#	Time	CHip			RHip			RKnee			RAnkle			RBigToe			RSmallToe			RHeel			LHip			LKnee			LAnkle			LBigToe			LSmallToe			LHeel			Neck			Nose			RShoulder			RElbow			RWrist			LShoulder			LElbow			LWrist			
		X1	Y1	Z1	X2	Y2	Z2	X3	Y3	Z3	X4	Y4	Z4	X5	Y5	Z5	X6	Y6	Z6	X7	Y7	Z7	X8	Y8	Z8	X9	Y9	Z9	X10	Y10	Z10	X11	Y11	Z11	X12	Y12	Z12	X13	Y13	Z13	X14	Y14	Z14	X15	Y15	Z15	X16	Y16	Z16	X17	Y17	Z17	X18	Y18	Z18	X19	Y19	Z19	X20	Y20	Z20	X21	Y21	Z21	
9	0.3	-0.23232304382191257	1.8314212876356637	-0.5072034608009628	-0.23616138990991195	1.825818495967381	-0.44006548294802134	-0.24056399901302117	1.6842503644854085	-0.4350024517534946	-0.23721431996580342	1.543111920400098	-0.4401613967866013	-0.20252392111463952	1.506708998734662	-0.488451089480524	-0.2117248908883837	1.5030681131840529	-0.4453118704075161	-0.24846644289931338	1.5386317479809057	-0.43708885495972916	-0.22537235012470708	1.8356934074886384	-0.5674607056833367	-0.21858551881248348	1.6968555794370541	-0.576148312217544	-0.2386444481805545	1.5676189784408945	-0.5504280743338639	-0.2107543298857119	1.5321698675333202	-0.6026032155230846	-0.2140920887548834	1.543770319676889	-0.6180088752510555	-0.23820280295181628	1.550627027782098	-0.5309515447271609	-0.2373431365522802	1.9902593748871749	-0.4930948058296409	-0.20458296305352888	2.040095238954629	-0.594705983171447	-0.23960666367880992	1.9904108509148326	-0.41638285662050745	-0.236608317706607	1.8976024914610918	-0.3740667644584665	-0.23044949646912774	1.8219466361443413	-0.36350222012571026	-0.2256295079630869	1.992174758269929	-0.5787956270787711	-0.2076120521151897	1.9561130939451847	-0.6912004539159479	-0.20229950206971084	2.0247738833799533	-0.6692578701819436
10	0.3333333333333333	-0.23196511396095096	1.8297417119617725	-0.5070961127132868	-0.23579853329460101	1.824308174155062	-0.4399221484655969	-0.24145497255162324	1.6835270467617427	-0.43825723515915527	-0.23612448042447037	1.5455464473408036	-0.43724631128303704	-0.20285609086617068	1.5080800212272822	-0.4884550290347902	-0.21194400523593707	1.5065950296443487	-0.4455722204475718	-0.24737527409643856	1.5386476192258904	-0.43379498810329725	-0.22514600892664688	1.835456236908619	-0.5676114667082434	-0.21977929062203014	1.7009305166338018	-0.5795515253514245	-0.2405298026425366	1.5752757946942282	-0.5493044950873549	-0.2129499977595445	1.542386957970371	-0.6058038372632022	-0.2181492040090313	1.552533104549081	-0.6231803427695224	-0.24420651958154274	1.5552757685787448	-0.5291036455258814	-0.2382124415806274	1.9913906492446583	-0.496245304741051	-0.20345923982308325	2.0416307970157637	-0.6004833702113029	-0.23771164586371402	1.9889283393552128	-0.41817110327313867	-0.2355460771095307	1.8932214287088345	-0.37854494652862103	-0.23193316861079202	1.8186544831743063	-0.3699624206188122	-0.23136226301720234	1.9942404962640512	-0.5805935598316719	-0.2079028915299385	1.952567773464713	-0.6907951306250548	-0.20221582414245584	2.0260597108483074	-0.6693602824856971
11	0.36666666666666664	-0.23452942818944472	1.828676581744205	-0.5047802102799986	-0.23860439335892966	1.821919232791852	-0.4458524223222363	-0.24169817416773706	1.6848857469987881	-0.43817808248750895	-0.23588587510809006	1.5440792252629152	-0.4374538513844303	-0.20342149474416402	1.5064686434415593	-0.491831063917061	-0.21088431966472077	1.5033814512199992	-0.4507541189805011	-0.2475968466671865	1.539703531063575	-0.4337110278929598	-0.2287517383515066	1.8345352316658348	-0.5682679164121217	-0.2271487741362486	1.7018795665562378	-0.5760527555183643	-0.24990479939912127	1.580799233283546	-0.5488044822063468	-0.21824805137220227	1.5479682037952103	-0.604832621619807	-0.22116798053015604	1.5548216142686206	-0.6238942524120437	-0.25370315533134763	1.566539400420485	-0.5335241822425523	-0.23925296758089648	1.9914445018387625	-0.49937584969586407	-0.20428970017918946	2.040298462805217	-0.6031948430058555	-0.23873845780471084	1.98897636681195	-0.4214098665196165	-0.23579037481626447	1.8934065182602369	-0.3873559291623174	-0.2239276362994776	1.810355345664942	-0.40134592743691383	-0.2346342983580425	1.9922647724452902	-0.5814826001618838	-0.21111808365719664	1.9514999635422994	-0.6915147848758249	-0.20245301881248445	2.0287759144139645	-0.6706049421281329
12	0.4	-0.23633723723955005	1.8274574958304906	-0.5111031519261771	-0.24034935173492217	1.8218320540620547	-0.45260988421347037	-0.2413179211075282	1.6842750651519895	-0.4387713114392491	-0.2360698277717393	1.5424264057987664	-0.4369274150375124	-0.20335851927291676	1.5058487187687413	-0.49171938925019526	-0.21294499135235312	1.5034988182211961	-0.4485963152963434	-0.2472607893206015	1.5381208529337211	-0.43373272212923675	-0.23042360581988314	1.8318508484678522	-0.5744733770276973	-0.2322455859655886	1.7035605034526005	-0.5751622249672766	-0.26114409355712104	1.5895144101608025	-0.5517365854738738	-0.23288429109301517	1.554230492035862	-0.5994003753809317	-0.23731997127789534	1.5660952836826918	-0.6177531668496926	-0.2655045987022236	1.567237685095768	-0.5299566623196135	-0.24115893999423793	1.9916380964983393	-0.5057818933160606	-0.20511330957163174	2.0389847880895755	-0.6059969604008062	-0.2397568034899573	1.9890114656595452	-0.42475294183668255	-0.23866754253194025	1.8947915267555901	-0.3974806541029281	-0.22670971623560265	1.816340112230351	-0.4123602225468562	-0.2332844115842967	1.9943169311326774	-0.5869620630809586	-0.21598641024220033	1.950441985425205	-0.6984774631213726	-0.20410678989381595	2.02727991140739	-0.6756854749011383
13	0.43333333333333335	-0.23741734732615993	1.8327481611823957	-0.5151677307381066	-0.24452005066316768	1.8271347320264737	-0.4578391714056467	-0.24214893652489553	1.6916693006524806	-0.4430535011373962	-0.236344925323053	1.5442554653962428	-0.4366433135856898	-0.20266666318668133	1.507220605228787	-0.4885018311346441	-0.2104212557784487	1.5058392390905182	-0.4471502772701763	-0.2473486442476377	1.5387676525573413	-0.43368615520596704	-0.23353293938834185	1.8357729646767396	-0.5760239786205148	-0.2365716800289067	1.7066968092695778	-0.5711100720036358	-0.26664251874305006	1.591051595716806	-0.5500579281679302	-0.24378562874399215	1.5642476958991098	-0.6026429173969816	-0.24762620798982798	1.5719586839247501	-0.612092404816819	-0.2724886648571037	1.5703805468046799	-0.5316708027376216	-0.2403387659500646	1.9931780922017752	-0.5116571944103421	-0.20698751724945788	2.0380896047015953	-0.6123497904652758	-0.24175796698750726	1.989188752977328	-0.4312859644928189	-0.2390734474242207	1.895312050839816	-0.4066247028997445	-0.2293985437802917	1.8173583501595219	-0.4276322705898309	-0.23518388497788448	1.994531086693211	-0.5931358890346003	-0.21695209420085035	1.9519091531476358	-0.7020081553999024	-0.2058920796647258	2.026429803473112	-0.6821527255798885
14	0.4666666666666667	-0.2404925623874069	1.8343471896161188	-0.525041168736942	-0.24366270646109206	1.827294771846303	-0.46349855733265316	-0.24289732807153794	1.6865600511998768	-0.44609986795513246	-0.2360683438139971	1.5422389854762235	-0.4408200139549693	-0.20166979111184238	1.5078417030116569	-0.49355432377330744	-0.21119142153624648	1.5054364254559935	-0.45051127017478165	-0.24769894624887331	1.5350558549974787	-0.43253755387064896	-0.23669810739412916	1.837080619730637	-0.577213092705806	-0.2460363876851125	1.7041246309525802	-0.5736219922185489	-0.2753739522903718	1.5925057212652785	-0.5497951621894568	-0.2530842897767715	1.5679553197209561	-0.6028444608705407	-0.2580488302723994	1.573910955973072	-0.6190749878618652	-0.27687464587480626	1.5736330947039727	-0.5364514321081896	-0.24420002930168952	1.9904787944891047	-0.5150849397213703	-0.20786905407638742	2.0373234201459423	-0.6237427640019746	-0.24295830496600757	1.9881808134046788	-0.442625515039448	-0.2391569357958249	1.8927542972492883	-0.41480315566815645	-0.23017789693073615	1.809372854677375	-0.4441500999687671	-0.24251571429443924	1.9933347580664156	-0.5896756316849943	-0.21769547926559288	1.9516865651900968	-0.7049194864419905	-0.2106005342780805	2.025991174344425	-0.688691965656184
15	0.5	-0.24838463140567155	1.830720770843028	-0.5247038100430053	-0.24831885916788024	1.8279118902114961	-0.47144120159117275	-0.24400337816209441	1.6917136807061763	-0.450281323792105	-0.23532682432786525	1.5408139100227738	-0.4417479025305439	-0.2006147964703657	1.5075200161170492	-0.4907805686282724	-0.20788621191527343	1.5039046552904236	-0.4497623284316488	-0.2469829770288516	1.5342392387009973	-0.4331692678371228	-0.24678401666220856	1.836122788304207	-0.5747523560055566	-0.25907986459480536	1.703938688889479	-0.5685520666723656	-0.27872023185577055	1.5932031567382199	-0.551020818920739	-0.2539089786084814	1.56958815053839	-0.6062565188182129	-0.2582643774212755	1.574958884610687	-0.6233898593600443	-0.2796096384734898	1.5715715897879965	-0.5379326312153709	-0.24624840266383044	1.9895052379788605	-0.5214894317812337	-0.21161805939692713	2.0361349493248344	-0.6275018350764847	-0.2460262315686601	1.986019839373632	-0.45176626649739215	-0.24329632292439352	1.896982809519811	-0.428715387558197	-0.22681027258969433	1.8194718048614797	-0.4537813500472002	-0.24529092447488962	1.9920029966133481	-0.5986470465151453	-0.21861237003877806	1.9502690079457963	-0.7075904685370692	-0.21354087934858165	2.0169939413285354	-0.6962063906577446
16	0.5333333333333333	-0.25447547679055593	1.8332409930024172	-0.527282286838966	-0.25451545667359476	1.8294416582012378	-0.48255758109964036	-0.24764769978296505	1.6952755904445231	-0.4602467295967104	-0.23573319256917227	1.543285000081296	-0.4415143825853667	-0.20267796989511203	1.5076187570253867	-0.4886485668949427	-0.21020800248400956	1.5079738346017186	-0.4479835837586654	-0.24522217596023796	1.5355033082632379	-0.43522528168940583	-0.25281928276430643	1.8359851895155481	-0.5852751404182545	-0.261179026010625	1.7032694217829838	-0.5664148855502514	-0.2761495576931081	1.5902148823099034	-0.553595119754086	-0.25226933405670954	1.5669816202661693	-0.6119887078373446	-0.25911636312657277	1.571801385347372	-0.6263233822561899	-0.276984180461231	1.5661058267450632	-0.5400428398741254	-0.2512719333198823	1.9888296398542298	-0.5372946185828048	-0.21331421873437537	2.0354668790901362	-0.6420315871470567	-0.25025374511056786	1.9827482252982156	-0.4642723366518104	-0.24645553379466145	1.8933149476526558	-0.4379354968834932	-0.22955634575373804	1.8231765609562596	-0.46428194911321624	-0.2492095976728663	1.9937490974391434	-0.6114742343407816	-0.22488054404423147	1.9447942077062128	-0.7085255145543738	-0.21911990549194174	2.0111220686478015	-0.7047508559521377
